<svg role="img" viewBox="0 0 24 24" xmlns="http://www.w3.org/2000/svg" fill="#239120"><title>C Sharp</title><path d="M12 0C5.374 0 0 5.374 0 12s5.374 12 12 12 12-5.374 12-12S18.626 0 12 0zm2.894 17.65c-.874.435-1.922.65-3.142.65-1.568 0-2.962-.35-4.182-1.05-.748-.438-1.316-1.002-1.705-1.692-.39-.69-.584-1.42-.584-2.19 0-.77.194-1.5.584-2.19.389-.69.957-1.254 1.705-1.692 1.22-.7 2.614-1.05 4.182-1.05 1.22 0 2.268.215 3.142.65.438.22.801.492 1.09.813l-1.23.97c-.219-.275-.492-.5-.813-.674-.583-.326-1.254-.49-2.014-.49-.84 0-1.568.21-2.184.63-.616.42-1.078.978-1.386 1.672-.308.694-.463 1.456-.463 2.384 0 .928.155 1.69.463 2.384.308.694.77 1.252 1.386 1.672.616.42 1.344.63 2.184.63.76 0 1.431-.164 2.014-.49.321-.174.594-.399.813-.674l1.23.97c-.289.321-.652.593-1.09.813zm3.19-5.746h-2.016v3.564h2.016v.924h-2.94v-5.412h2.94v.924zm0 0"/></svg>