<svg role="img" viewBox="0 0 24 24" xmlns="http://www.w3.org/2000/svg" fill="#007396"><title>Java</title><path d="M8.851 18.56s-1.637 1.066.366 1.422c2.49.421 3.81.361 6.58-1.066 0 0 .731.545 1.756 1.016-6.214 2.662-13.289-.39-8.702-1.372M8.034 15.9s-1.839 1.36.459 1.65c2.84.362 5.08.425 8.953-1.36 0 0 .51.545 1.312.844-7.916 2.32-14.84-.275-10.724-1.134M17.151 11.585c2.068 2.384-.544 4.53-.544 4.53s5.253-2.717 2.838-6.11c-2.194-3.05-3.874-4.563 5.227-9.809-14.738.365-21.704 10.992-8.981 11.289"/><path d="M2.341 21.526s1.215 1.005 3.073.445c7.917-2.2 12.764-1.588 17.896-5.44.809-.604 1.275-1.005.837-1.735-1.096-1.875-6.582.09-13.034 2.84-5.065 2.338-8.772 2.19-8.772 3.89M22.081 2.198C22.081 2.198 24.246.044 22.615-1.45c-1.42-1.265-2.66-.544-2.66-.544s.604.69 1.213 1.335c.61.645 1.08 1.078.832 1.857Z"/></svg>