<svg role="img" viewBox="0 0 24 24" xmlns="http://www.w3.org/2000/svg" fill="#FF2D20"><title>Laravel</title><path d="M23.642 5.43a.845.845 0 00-.038-.208.924.924 0 00-.145-.27l-.01-.014-.004-.007a.9.9 0 00-.181-.181l-7.053-4.105c-.053-.031-.11-.052-.168-.063a.896.896 0 00-.316 0c-.058.011-.115.032-.168.063L9.016 4.779a.898.898 0 00-.26.188L1.909 9.072a.9.9 0 00-.36.72v9.216a.9.9 0 00.36.72l7.847 4.555c.053.03.11.05.168.062.105.024.213.024.318 0 .058-.013.115-.032.168-.062l7.847-4.555a.898.898 0 00.36-.72V9.792a.898.898 0 00-.053-.361zm-11.346 8.23l-3.788-2.192 3.788-2.19 3.788 2.19-3.788 2.191zm.432-7.597l-3.897-2.258 4.5-2.607 4.5 2.607-4.103 2.258zm4.5 3.032l3.788 2.192-3.788 2.191-3.788-2.191 3.788-2.192zm.937 8.198l-4.5 2.606-4.5-2.606v-5.215l4.5 2.605 4.5-2.605v5.215z"/></svg>