<svg role="img" viewBox="0 0 24 24" xmlns="http://www.w3.org/2000/svg" fill="#00758F"><title>MySQL</title><path d="M16.408 6.314h-1.347v4.573h1.347V6.314zm6.5 2.886c-.268-.468-.757-.747-1.347-.747-.815 0-1.532.61-1.532 1.532 0 .815.663 1.481 1.532 1.481.589 0 1.079-.267 1.347-.747v-.519zm-10.922 2.028h-1.347v4.573h1.347v-4.573zm6.5 0h-1.347v4.573h1.347v-4.573zM5.146 9.228H3.799v4.573h1.347v-4.573zm6.5-2.914c-.847 0-1.586.494-1.909 1.216-.36-.75-1.131-1.216-2.028-1.216-1.321 0-2.405 1.079-2.405 2.405v4.082h1.347v-4.082c0-.589.494-1.079 1.079-1.079.585 0 1.079.490 1.079 1.079v4.082h1.347v-4.082c0-.589.494-1.079 1.079-1.079.585 0 1.079.490 1.079 1.079v4.082h1.347v-4.082c0-1.326-1.084-2.405-2.405-2.405z"/></svg>