<svg role="img" viewBox="0 0 24 24" xmlns="http://www.w3.org/2000/svg" fill="#F80000"><title>Oracle</title><path d="M5.076 17.063h2.793V8.594c0-.49.381-.872.87-.872.49 0 .87.382.87.872v8.469h2.793c.381 0 .653.273.653.654 0 .381-.272.654-.653.654H5.076c-.381 0-.654-.273-.654-.654 0-.381.273-.654.654-.654zm10.586 0h2.793V8.594c0-.49.381-.872.87-.872.49 0 .87.382.87.872v8.469h2.793c.381 0 .653.273.653.654 0 .381-.272.654-.653.654h-7.326c-.381 0-.654-.273-.654-.654 0-.381.273-.654.654-.654z"/></svg>