<svg role="img" viewBox="0 0 24 24" xmlns="http://www.w3.org/2000/svg" fill="#777BB4"><title>PHP</title><path d="M7.01 8.69h1.74c1.24 0 1.74-.49 1.74-1.49 0-.99-.5-1.49-1.74-1.49H7.01v2.98zm-.75-5.38h2.53c2.48 0 3.73 1.49 3.73 3.73 0 2.49-1.25 3.98-3.73 3.98H7.01v2.98H5.26V3.31zm8.44 0h1.74v10.7h-1.74V3.31zm4.37 0h1.74c1.78 0 2.73.99 2.73 2.98 0 1.24-.25 2.24-1.25 2.98 1.24.74 1.99 1.99 1.99 3.23 0 2.48-1.25 3.73-3.48 3.73h-1.73V3.31zm1.74 4.47c1.24 0 1.74-.5 1.74-1.49 0-.99-.5-1.49-1.74-1.49h-.75v2.98h.75zm0 5.46c1.24 0 1.99-.5 1.99-1.74 0-1.24-.75-1.74-1.99-1.74h-.75v3.48h.75z"/></svg>