<svg role="img" viewBox="0 0 24 24" xmlns="http://www.w3.org/2000/svg" fill="#6DB33F"><title>Spring</title><path d="M21.8 1.28C19.22-1.0 14.64-2.25 10.8 1.58c-2.88 2.88-2.6 7.44-1.98 10.56-2.16-1.26-5.4-3.15-8.1-1.53-2.43 1.44-2.88 5.04-1.26 7.92 1.8 3.24 5.22 4.86 8.1 4.86 9.72 0 15.3-8.82 15.3-17.28.06-2.16-.54-4.23-1.98-5.58zm-10.8 23.76c-4.14 0-7.26-1.62-8.4-4.14-1.08-2.34-.54-5.58 1.44-7.2 1.98-1.8 4.59-.42 6.66 1.26.06 2.7-.12 7.62.3 10.08zm5.04-6.12c-.66 0-1.26.12-1.86.3-.54-3.6-.12-8.88 2.7-11.28 2.22-1.98 5.22-1.26 6.66 0 1.44 1.26 1.98 3.6 1.44 5.58-1.08 3.78-3.78 5.4-8.94 5.4z"/></svg>